<svg width="1030" height="1030" viewBox="0 0 1030 1030" fill="none" xmlns="http://www.w3.org/2000/svg">
<path d="M470.145 1029.56V515.448C470.145 232.826 468.778 1.34646 467.002 1.79168C378.99 12.1107 278.881 50.6938 212.885 99.1448C-46.6116 289.802 -73.1173 660.351 156.754 885.55C231.729 958.674 344.418 1013.85 445.441 1026.42L470.145 1029.56Z" fill="#E7451C"/>
<path d="M893.951 168.228C821.689 90.1729 735.02 39.4791 631.764 14.8058C610.661 9.86878 576.09 4.48592 554.531 2.69376L515.041 0V243.145V485.844H599.427H683.405L797.872 355.298C860.747 283.52 915.964 220.269 919.997 214.435C927.631 204.567 927.633 204.117 893.951 168.228Z" fill="#E7451C"/>
<path d="M1010.7 654.968C1045.73 534.295 1032.69 398.366 974.781 283.074C966.691 266.923 958.169 252.116 956.368 251.219C953.223 249.427 770.048 455.338 731.444 504.233L721.119 517.247L841.422 644.204L961.771 771.155L969.383 758.593C981.963 738.407 999.007 695.789 1010.7 654.968Z" fill="#E7451C"/>
<path d="M803.204 673.118L781.956 650.909L760.179 628.051L666.793 530.704H590.902H515.041V780.578V1030L561.28 1027.31C694.185 1019.24 833.356 944.765 918.655 836.204L937.501 811.98L895.752 768.912C886.413 759.401 871.022 743.571 852.656 724.548C837.628 708.97 820.585 691.255 803.204 673.118Z" fill="#E7451C"/>
</svg>
