<svg width="3205" height="797" viewBox="0 0 3205 797" fill="none" xmlns="http://www.w3.org/2000/svg">
<path d="M1198.33 2.19994C1152.47 12.8666 1107.8 56.1999 1065 131.667C1034.87 184.467 1014.2 238.867 1007 284.333C1004.73 298.733 1004.33 299.267 1001.8 290.333C996.6 271.8 982.867 255 966.6 247L957.533 242.6L964.067 239.4C977.133 233.133 988.2 216.6 990.867 199C993.133 185 989.933 163.4 984.067 151.667C974.067 131.933 958.467 120.867 931.667 114.6C920.6 112.067 915.533 111.8 868.333 111.8L817 111.667V253.667V395.667H875.667C928.467 395.667 935.267 395.4 943.667 393.133C959.4 389 971.533 382.467 981.667 372.6C991.8 362.467 996.867 353.667 1001.13 338.333C1003.4 330.467 1004.2 328.867 1004.2 332.067C1004.47 340.067 1009.8 360.867 1013.8 369.267C1021.4 385.267 1036.33 398.067 1056.07 405.4C1063.13 408.067 1067.67 408.733 1077.67 408.867C1089.27 409 1091.13 408.6 1099 404.867C1115.53 397 1130.47 381.667 1146.73 355.533C1154.47 343.133 1167.53 317 1172.33 304.733C1174.07 300.2 1175.8 296.6 1176.07 296.867C1176.33 297.133 1177.67 302.867 1179 309.667C1182.87 328.467 1191.53 345 1203.8 357.133C1220.87 373.933 1238.6 381.267 1259 379.933C1297.67 377.267 1318.6 345.4 1325 279.667C1330.07 227.533 1320.2 153.267 1300.2 93.2666C1284.6 46.5999 1264.87 17.2666 1240.87 5.53327C1232.87 1.53327 1230.47 0.999938 1219.13 0.733271C1211.67 0.599938 1203 1.13327 1198.33 2.19994ZM1235 16.4666C1244.07 20.7333 1255.93 31.3999 1263.8 42.3333C1292.33 82.3333 1313.67 171.4 1313.67 250.867C1313.67 292.733 1310.07 314.067 1299 337C1289.93 356.067 1276.6 366.2 1258.73 367.8C1242.07 369.4 1225.27 362.6 1212.6 349C1203.8 339.667 1198.07 329.4 1192.87 314.333C1189.67 304.733 1189.27 301.267 1188.6 279.8L1188.07 255.933L1198.73 256.733C1205.53 257.267 1212.6 258.867 1217.8 261C1227.67 265 1227.53 264.867 1230.2 262.2C1234.07 258.467 1232.73 255.267 1226.07 251.8C1204.2 240.867 1175 241.933 1149.93 254.6C1140.73 259.267 1139.67 260.2 1139.27 263.933C1139 267.133 1139.53 268.467 1141.53 269.667C1143.8 270.867 1145.93 270.2 1153.27 266.467C1163.13 261.533 1175 257.133 1176.07 258.2C1177.93 260.2 1160.6 304.067 1148.2 328.333C1131.53 361.133 1111.13 386.333 1094.87 394.2C1071.8 405.4 1037.53 390.733 1024.73 364.333C1012.6 339.133 1012.07 309.8 1023.13 264.333C1031.53 230.467 1040.33 206.733 1059 169C1084.2 118.2 1108.87 81.3999 1136.33 53.5333C1157 32.7333 1175 20.8666 1195.27 14.8666C1207.53 11.2666 1225.13 11.9333 1235 16.4666ZM910.467 161.8C923.8 165.267 930.6 178.067 929.267 197.533C928.333 210.2 926.467 216.467 922.067 221.8C915.933 229 909.667 231 892.733 231H877.667V195.667V160.333H891.133C898.467 160.333 907.133 161 910.467 161.8ZM929.267 277.933C933 280.467 935.933 283.933 938.6 289.267C941.933 296.067 942.333 298.467 942.333 309.667C942.333 320.867 941.933 323.267 938.6 330.067C931.533 344.2 924.733 347 896.733 347H877.667V310.2V273.4L900.733 273.933C923.267 274.333 924.067 274.467 929.267 277.933Z" fill="black"/>
<path d="M1201 114.2C1198.47 115.933 1195.13 129.533 1191.13 153C1185.93 184.733 1186.07 191 1192.2 191C1196.73 191 1197.67 188.467 1200.33 170.2C1203 150.2 1205.93 135.533 1209.13 125.4C1210.6 120.867 1210.73 118.467 1209.8 116.6C1208.07 113.267 1203.8 112.2 1201 114.2Z" fill="black"/>
<path d="M90.3332 109.667C59.9332 117.4 34.5999 138.2 19.1332 168.333C7.26657 191.533 2.06657 213.133 0.73324 244.333C-0.46676 275.133 2.73324 298.067 11.9332 323.267C20.8666 348.067 39.1332 371.933 59.1332 384.733C96.9999 408.867 151 406.2 185.933 378.467C206.733 361.933 221.667 332.6 225.533 301C226.2 295.133 226.6 290.2 226.467 290.067C225.933 289.533 182.6 287 174.067 287H167.133L166.333 293.267C163.4 314.467 156.6 329.267 144.867 340.2C135.133 349.4 124.467 353.267 113.133 351.8C81.6666 347.8 61.6666 309.533 61.6666 253.667C61.6666 206.867 75.6666 172.2 99.2666 160.467C110.067 155 124.067 154.6 134.333 159.533C150.733 167.133 161.533 186.467 165.533 215.533C166.2 220.467 167.133 224.867 167.4 225.267C168.067 225.8 225.933 220.333 226.867 219.533C228.067 218.467 223.667 197.267 219.667 184.867C211.933 161.4 203.267 147.267 187.533 132.333C177.4 122.867 164.733 115.533 150.333 111C136.467 106.6 105.267 105.933 90.3332 109.667Z" fill="black"/>
<path d="M2101 109.133C2053.4 120.467 2020.47 161.667 2011.67 221C2009 239 2009 269.133 2011.53 286.467C2018.73 334.2 2042.07 371.8 2075 388.867C2098.47 401 2125.27 404.333 2151.93 398.2C2190.73 389.533 2221.4 357.533 2234.47 312.467C2245.67 273.667 2245 225.8 2232.73 189.667C2218.07 146.6 2190.07 118.733 2152.07 109.667C2138.73 106.467 2113.27 106.2 2101 109.133ZM2142.73 159.667C2167 171 2181 205.8 2180.87 255C2180.73 292.467 2172.73 320.333 2157.27 337.133C2139.27 356.867 2111.27 356.733 2093.93 337C2079 319.933 2071 291.133 2071 253.533C2071 205.133 2084.47 171.8 2108.73 159.667C2118.2 155 2132.6 155 2142.73 159.667Z" fill="black"/>
<path d="M2335 109.667C2318.47 114.067 2302.07 122.867 2289.93 134.333C2260.07 162.467 2245.53 201.667 2245.53 254.333C2245.53 328.733 2279.13 383.133 2334.33 397.8C2349.4 401.933 2376.47 401.8 2391.67 397.8C2432.73 386.733 2460.2 355.4 2469 309.267C2470.07 303.4 2471 296.733 2471 294.333V289.933L2462.73 289.133C2458.07 288.733 2444.6 287.933 2432.73 287.533L2411 286.6V290.2C2411 297.4 2406.73 314.467 2402.87 322.467C2388.73 352.333 2358.87 360.6 2335 341.4C2317.27 327.267 2306.87 294.733 2306.73 254.2C2306.73 213.8 2314.73 187.267 2332.33 169.533C2342.6 159.133 2349.4 156.333 2363.67 156.333C2371.13 156.333 2374.6 157 2379.93 159.667C2396.6 167.933 2407.27 188.2 2410.33 216.6C2410.87 221.933 2411.93 225.667 2412.87 225.667C2415.53 225.667 2471.67 219.933 2472.07 219.667C2472.87 219 2469.53 202.467 2466.2 190.333C2464.33 183.667 2459.8 172.333 2456.2 165C2441.53 135.133 2419.53 116.867 2389.67 109.667C2374.33 106.067 2349.13 106.067 2335 109.667Z" fill="black"/>
<path d="M239.933 111.933C239.4 112.333 239 176.6 239 254.6V396.333L269.267 396.067L299.533 395.667L299.8 335.667C299.933 302.6 300.067 275.267 300.2 274.6C300.2 274.067 319.533 273.667 343 273.667H385.667V335V396.333H416.333H447L446.733 253.933L446.333 111.667H416.333H386.333L385.933 167.933L385.667 224.333H343.133C310.333 224.333 300.467 223.933 300.067 222.6C299.667 221.8 299.533 197.267 299.667 168.333C299.667 139.4 299.533 114.6 299.267 113.267C298.733 111.133 296.2 111 269.8 111C253.8 111 240.333 111.4 239.933 111.933Z" fill="black"/>
<path d="M468.333 253.667V396.333H548.333H628.333V371.667V347H578.333H528.333L528.067 229.267L527.667 111.667L498.067 111.267L468.333 111V253.667Z" fill="black"/>
<path d="M637.667 253.667V396.333H719H800.333V371.667V347H749H697.667V310.333V273.667H741H784.333V249V224.333H741H697.667V192.333V160.333H748.333H799V135.667V111H718.333H637.667V253.667Z" fill="black"/>
<path d="M1425.27 111.8C1424.73 112.333 1424.33 176.6 1424.33 254.6V396.333H1531H1637.8L1638.47 392.6C1639 390.6 1642.73 375.533 1646.87 359L1654.33 329H1693.67H1733L1741 362.333L1749.13 395.667L1780.87 396.067L1812.6 396.333L1811.8 393.4C1810.2 387.267 1765 208.733 1753 161L1740.73 111.667L1694.07 111.267L1647.53 111L1625.13 200.6C1612.87 249.933 1599.13 305.267 1594.6 323.667C1588.47 348.2 1586.2 355.667 1585.93 351.933L1585.53 347H1535.53H1485.67L1485.4 229.267L1485 111.667L1455.53 111.267C1439.4 111.133 1425.8 111.4 1425.27 111.8ZM1711.53 239.933C1716.33 259.8 1720.33 276.733 1720.33 277.533C1720.33 278.6 1711.53 279 1692.87 279C1677.8 279 1665.8 278.6 1666.07 277.933C1666.47 277.4 1672.47 253.4 1679.53 224.467C1686.73 195.533 1692.87 171.267 1693.4 170.467C1694.2 169 1695.8 175 1711.53 239.933Z" fill="black"/>
<path d="M1816.33 253.667V396.333H1846.33H1876.33V358.6V320.733L1892.07 298.6C1900.6 286.467 1908.2 276.6 1908.73 276.733C1909.27 276.867 1916.47 293 1924.47 312.333C1932.47 331.8 1939.93 349.4 1940.87 351.667C1941.8 353.8 1946.33 364.867 1951 375.933L1959.27 396.333H1993.27H2027.13L2026.33 393.533C2025.8 391.933 2022.33 383.933 2018.73 375.8C2015.13 367.667 2003.67 341.8 1993.4 318.333C1967.4 259 1961 244.2 1954.73 230.2L1949.4 217.933L1977.8 178.2C1993.4 156.2 2009.93 133.133 2014.6 126.6C2019.27 120.2 2023.4 114.067 2023.8 113C2024.47 111.267 2020.07 111 1989.8 111H1955L1916.07 169.533L1877 228.067L1876.33 169.933L1875.67 111.667L1846.07 111.267L1816.33 111V253.667Z" fill="black"/>
<path d="M2484.33 253.667V396.333H2514.33H2544.33V253.667V111H2514.33H2484.33V253.667Z" fill="black"/>
<path d="M2566.6 111.8C2566.07 112.333 2565.67 176.6 2565.67 254.6V396.333H2595.8H2625.93L2625.27 323.933C2624.6 260.2 2623.27 223.533 2621 208.333C2620.2 202.6 2621.93 206.067 2645 257.667C2654.07 277.8 2668.87 310.867 2678.07 331C2687.13 351.133 2697.53 374.067 2701 381.933L2707.4 396.333H2741.13H2775L2774.73 253.933L2774.33 111.667H2744.33H2714.33L2713.93 133C2713.4 160.6 2715.8 252.733 2717.8 277.4C2718.6 287.933 2719 296.733 2718.73 297C2718.33 297.4 2681.13 217.667 2646.47 142.333C2642.73 134.2 2637.93 124.067 2635.67 119.667L2631.67 111.667L2599.53 111.267C2581.93 111.133 2567.13 111.4 2566.6 111.8Z" fill="black"/>
<path d="M2796.33 253.667V396.333H2826.33H2856.33V358.6V320.867L2871.8 299C2880.2 286.867 2887.67 276.867 2888.2 276.6C2888.87 276.467 2890.07 278.2 2891 280.6C2891.93 283 2896.87 294.867 2901.93 307C2907 319.133 2914.07 335.933 2917.53 344.333C2921.13 352.733 2927.4 367.933 2931.67 377.933L2939.4 396.333H2973.4C2999.93 396.333 3007.13 395.933 3006.6 394.6C3004.6 389.533 2982.2 338.2 2969.13 308.6C2946.87 258.333 2929.67 218.867 2929.67 218.067C2929.67 217.8 2944.2 197.133 2961.93 172.2C2993 128.733 2994.33 127.133 2995.93 130.2C2996.87 132.067 3005.4 150.467 3014.87 171.267C3024.33 192.067 3039.67 225.533 3048.87 245.667L3065.67 282.333V339.267V396.333H3095.67H3125.67V339V281.667L3151.53 226.067C3165.8 195.4 3181.93 160.467 3187.67 148.333C3193.27 136.2 3199.4 123.267 3201.13 119.4C3202.87 115.667 3204.33 112.2 3204.33 111.8C3204.33 111.4 3189.8 111 3171.93 111H3139.4L3118.2 165C3106.6 194.733 3096.73 219 3096.33 219C3095.93 219 3086.07 194.867 3074.2 165.267L3052.73 111.667H2993.67H2934.47L2895.4 170.2L2856.33 228.733L2856.07 170.2L2855.67 111.667L2826.07 111.267L2796.33 111V253.667Z" fill="black"/>
<path d="M1334.6 451.8C1326.73 468.333 1320.33 482.467 1320.33 483.133C1320.33 483.8 1330.47 484.333 1342.87 484.333H1365.4L1383.8 459.267C1393.93 445.533 1404.2 431.933 1406.6 428.867C1409 425.8 1411 423 1411 422.467C1411 422.067 1397 421.667 1379.93 421.667H1348.87L1334.6 451.8Z" fill="black"/>
<path d="M1524.33 422.467C1524.33 423 1532.6 437 1542.73 453.8L1561 484.333L1591.53 483.933L1622.07 483.667L1634.87 462.333C1641.93 450.467 1650.2 436.867 1653.4 431.8C1656.47 426.867 1659 422.6 1659 422.2C1659 421.933 1649.13 421.667 1637.13 421.667H1615.27L1603.53 440.467C1589.93 462.333 1593 462.733 1577.67 437.933L1567.67 421.8L1546.07 421.667C1534.07 421.667 1524.33 422.067 1524.33 422.467Z" fill="black"/>
<path d="M1569 503.133C1533.13 507.667 1504.2 532.6 1495.67 566.333C1492.73 577.8 1493 598.867 1496.33 611.533C1499.93 625.533 1504.73 634.067 1515 644.467C1522.2 651.8 1526.33 654.6 1539 660.733C1547.4 664.733 1561 670.333 1569 673C1590.87 680.467 1602.07 686.333 1608.87 693.8C1620.87 707.267 1620.47 727.133 1607.8 738.733C1601.4 744.6 1595 747 1585.53 747C1564.6 747 1550.07 730.867 1545.13 702.333C1543.93 695.667 1543 688.6 1543 686.467C1543 683 1542.6 682.733 1539.4 683.4C1537.27 683.8 1524.47 685.533 1510.73 687.133L1485.67 690.2V695C1485.8 697.533 1486.6 704.333 1487.53 709.933C1495.27 753.267 1521.13 783.8 1558.2 793.533C1573 797.4 1598.87 797.4 1613.93 793.533C1643.27 786.067 1665 767 1674.6 740.067C1677.8 731.267 1678.07 728.6 1678.07 711C1678.07 694.333 1677.67 690.2 1674.73 680.733C1665.67 650.867 1648.33 636.6 1601 620.2C1576.87 611.933 1569.67 608.2 1563.13 600.733C1554.47 591 1552.73 579.133 1558.2 567.533C1561.8 559.667 1566.47 555.533 1574.2 553.533C1594.47 548.067 1611.53 565.133 1614.6 594.067C1615 598.333 1615.8 601.933 1616.2 602.2C1617.27 602.867 1673.8 596.6 1674.73 595.8C1675.8 594.733 1672.47 574.867 1669.67 566.067C1660.73 537.133 1639.53 515.933 1610.33 506.6C1604.47 504.6 1583.27 501.4 1579.67 501.8C1579 501.933 1574.2 502.6 1569 503.133Z" fill="black"/>
<path d="M715.133 642.6C696.467 717.267 680.6 781.133 679.667 784.6C678.6 787.933 678.2 791.133 678.6 791.533C679.133 791.933 692.733 792.333 709.133 792.333C731.533 792.333 738.867 791.933 739.267 790.6C739.667 789.8 743.4 774.467 747.667 756.6L755.533 724.333L794.867 724.6L834.067 725L836.6 734.333C837.933 739.4 841.533 754.467 844.733 767.667L850.6 791.667L882.067 792.067C899.533 792.2 913.667 792.067 913.667 791.667C913.667 791.267 910.733 779.4 907.133 765.267C900.6 739.933 880.467 660.733 855.667 562.333C848.6 534.467 842.6 510.6 842.2 509.267C841.533 507.133 838.067 507 795.133 507H748.867L715.133 642.6ZM808.867 619.8C816.067 649.533 821.667 674.067 821.4 674.467C821 674.733 808.733 674.867 794.2 674.733L767.533 674.333L781 620.067C788.333 590.067 794.6 565.667 795 565.667C795.4 565.667 801.533 590.067 808.867 619.8Z" fill="black"/>
<path d="M961.667 649.667V792.333H991.667H1021.67V649.667V507H991.667H961.667V649.667Z" fill="black"/>
<path d="M1043 649.667V792.333H1073.13H1103.4L1102.6 721.267C1101.93 658.467 1101.13 637.8 1098.33 607.667L1097.53 599.667L1103 611C1106.07 617.267 1109.93 625.667 1111.67 629.667C1113.4 633.667 1117.27 642.333 1120.33 649C1123.4 655.533 1127.27 664.333 1129 668.333C1130.73 672.333 1133.93 679.533 1136.07 684.333C1138.33 689.133 1146.73 707.933 1155 726.333C1163.13 744.6 1173.27 767 1177.27 776.067L1184.73 792.333H1217.93H1251V649.667V507H1221H1191V545.267C1191 590.867 1193.13 657.933 1195.13 678.067C1195.93 686.067 1196.33 692.867 1195.93 693.133C1195.53 693.533 1185 671.267 1166.2 630.333C1164.47 626.6 1152.87 601.4 1140.2 574.333C1127.67 547.133 1115.53 521 1113.27 515.933L1109.27 507H1076.2H1043V649.667Z" fill="black"/>
<path d="M1272.6 649.267L1273 791.667L1354.73 792.067L1436.33 792.333V767.667V743L1384.73 742.733L1333 742.333L1332.6 705.933L1332.33 669.667H1376.33H1420.33V645V620.333H1376.33H1332.33L1332.6 588.6L1333 557L1384.07 556.6L1435 556.333V531.667V507H1353.67H1272.33L1272.6 649.267Z" fill="black"/>
<path d="M1689.67 649.667V792.333H1717.67H1745.67V733.933C1745.67 677.533 1743.8 633.133 1740.2 603.4C1739.4 596.733 1738.87 590.6 1739.27 589.667C1739.53 588.867 1751 622.467 1764.87 664.333L1790.07 740.333L1813.53 740.067L1837 739.667L1841.93 725C1844.6 716.867 1853.53 689.667 1861.67 664.333C1879.8 607.933 1888.47 582.333 1887.67 587.667C1882.73 618.467 1880.33 664.733 1880.33 733.933V792.333H1909H1937.67V649.667V507H1903.27H1868.87L1850.47 563.267C1840.33 594.333 1828.07 632.2 1823 647.533L1813.93 675.4L1786.2 591.267L1758.33 507H1724.07H1689.67V649.667Z" fill="black"/>
<path d="M2010.47 513.933C2007.27 525.533 1941.67 789 1941.67 790.733C1941.67 791.933 1949 792.333 1971.93 792.067L2002.33 791.667L2010.07 759.667C2014.33 742.067 2018.07 726.867 2018.47 725.933C2018.73 724.733 2027.93 724.333 2058.2 724.333H2097.4L2105.67 758.333L2114.07 792.333H2145.13C2167.8 792.333 2176.33 791.933 2176.33 790.733C2176.33 789.133 2110.73 529 2105.93 511.667L2104.87 507.667L2058.73 507.267L2012.47 507L2010.47 513.933ZM2072.33 621C2079 648.067 2084.73 671.4 2085.13 672.6C2085.8 674.867 2083.93 675 2058.33 675H2030.73L2031.53 671.933C2031.93 670.333 2038.07 645.267 2045.27 616.333C2055.93 572.867 2058.33 564.333 2059.27 567.667C2059.93 569.8 2065.8 593.8 2072.33 621Z" fill="black"/>
<path d="M2180.33 649.667V792.333H2210.33H2240.33V754.867V717.267L2256.47 694.867C2265.27 682.467 2272.87 672.333 2273.4 672.333C2273.93 672.333 2278.2 681.8 2282.87 693.4C2291.53 714.6 2302.47 740.867 2316.33 773.667L2323.93 791.667L2358.2 792.067L2392.33 792.333L2390.47 788.067C2389.53 785.667 2378.6 760.867 2366.33 733C2354.07 705.133 2337.27 666.867 2329 648.067L2314.07 613.8L2346.2 568.467C2363.8 543.533 2378.6 523.133 2379 523C2379.67 523 2392.73 551.4 2418.47 608.333C2422.33 616.733 2430.87 635.667 2437.53 650.2L2449.67 676.733V734.6V792.333L2480.07 792.067L2510.33 791.667L2511 733L2511.67 674.333L2516.87 663.667C2526.2 644.067 2536.33 622.733 2536.33 622.2C2536.33 621.933 2548.07 596.467 2562.33 565.667C2576.6 534.867 2588.33 509 2588.33 508.333C2588.33 507.533 2576.6 507 2556.33 507C2524.33 507 2524.33 507 2523 509.933C2522.33 511.667 2518.47 521.4 2514.47 531.667C2502.6 562.467 2487 601.8 2483.93 609.4C2482.33 613.533 2480.73 615.667 2480.33 614.733C2479.8 613.8 2469.93 589.133 2458.33 559.933L2437.13 507H2378.33H2319.4L2280.2 565.933L2241 624.867L2240.6 565.933L2240.33 507H2210.33H2180.33V649.667Z" fill="black"/>
</svg>
