<svg width="808" height="808" viewBox="0 0 808 808" fill="none" xmlns="http://www.w3.org/2000/svg">
<path d="M368.813 807.652V404.351C368.813 182.644 367.741 1.05625 366.347 1.40551C297.305 9.50043 218.773 39.7676 167.001 77.7757C-36.5652 227.34 -57.3581 518.023 122.968 694.684C181.784 752.047 270.184 795.334 349.434 805.189L368.813 807.652Z" fill="#A39B72"/>
<path d="M701.274 131.969C644.587 70.7376 576.598 30.9701 495.597 11.6146C479.043 7.74172 451.923 3.51905 435.011 2.11316L404.032 0V190.739V381.128H470.23H536.108L625.903 278.719C675.227 222.412 718.542 172.794 721.706 168.217C727.695 160.476 727.697 160.123 701.274 131.969Z" fill="#A39B72"/>
<path d="M792.859 513.8C820.336 419.136 810.108 312.505 764.683 222.062C758.336 209.392 751.651 197.777 750.238 197.073C747.771 195.667 604.077 357.197 573.793 395.553L565.693 405.763L660.067 505.356L754.477 604.945L760.448 595.09C770.316 579.255 783.687 545.823 792.859 513.8Z" fill="#A39B72"/>
<path d="M630.086 528.038L613.418 510.616L596.335 492.685L523.076 416.319H463.543H404.032V612.337V808L440.305 805.893C544.565 799.557 653.74 741.136 720.653 655.974L735.438 636.971L702.687 603.185C695.361 595.724 683.287 583.306 668.88 568.383C657.09 556.163 643.721 542.266 630.086 528.038Z" fill="#A39B72"/>
</svg>
