<svg width="2450" height="513" viewBox="0 0 2450 513" fill="none" xmlns="http://www.w3.org/2000/svg">
<path fill-rule="evenodd" clip-rule="evenodd" d="M919.536 2.21434C961.508 5.20147 998.025 19.8505 1028.34 45.8743C1035.29 51.8485 1047.4 64.3721 1053.09 71.4383C1083.69 109.698 1102 159.16 1108.2 220.514C1109.41 232.635 1109.93 267.736 1109.07 281.408C1104.7 351.725 1082.77 410.434 1045.45 451.738C1021.62 478.107 990.387 497.239 956.799 506.027C946.121 508.786 934.178 510.853 923.211 511.772C912.819 512.69 889.049 512.232 879.344 510.967C830.139 504.476 788.513 480.866 757.222 441.687C751.938 435.138 742.12 420.602 737.987 413.248C717.663 377.289 705.146 332.019 701.931 282.672C701.127 270.55 701.471 232.348 702.447 222.812C707.442 174.901 717.374 139.685 735.402 105.907C773.356 34.8445 841.105 -3.30091 919.536 2.21434ZM2376.18 70.3463V136.181L2373.02 135.779C2360.1 134.171 2345.69 127.104 2336.1 117.74C2306.7 88.9021 2310.09 41.4508 2343.28 17.0359C2351.72 10.8314 2364.52 5.89065 2375.78 4.56923C2376 4.51222 2376.18 34.1546 2376.18 70.3463ZM2396.85 6.23565C2410.05 9.39524 2421.13 15.8869 2430.38 25.8825C2434.68 30.4783 2434.68 30.536 2433.71 31.7997C2433.19 32.5468 2426.13 40.6463 2418.09 49.838L2403.45 66.5553H2392.71H2381.92V35.4761V4.33973L2386.97 4.68472C2389.73 4.91422 2394.15 5.60343 2396.85 6.23565ZM106.069 113.145L106.241 216.033L175.427 113.145L244.614 10.3139L305.933 10.2569C339.638 10.2569 367.196 10.4295 367.196 10.6012C367.196 10.8884 357.034 25.0785 275.044 138.939C253.34 169.099 235.427 194.203 235.311 194.663C235.197 195.122 245.933 219.94 259.139 249.812L271.022 276.567L271.134 276.82L272.433 279.745C286.924 312.374 306.418 356.265 322.126 391.705C368.114 495.343 371.789 503.671 371.789 504.015C371.789 504.187 345.091 504.245 312.535 504.187L253.226 504.015L208.785 398.715C167.044 299.963 164.231 293.529 163.312 294.449C163.195 294.579 162.499 295.517 161.331 297.115C160.047 298.872 158.193 301.428 155.909 304.587C151.132 311.192 144.479 320.435 137.246 330.526C131.662 338.291 126.266 345.805 121.701 352.158L113.788 363.17C111.263 366.685 109.555 369.056 108.997 369.818L105.954 374.069V439.159V504.304H53.7057H1.45714V257.28V10.2569H53.7057H105.954L106.069 113.145ZM538.122 10.8884C581.93 14.4507 618.794 29.042 646.524 53.8022C660.935 66.6702 673.167 84.3063 680.4 102.747C692.113 132.677 692.57 172.546 681.49 203.107C669.836 235.393 646.008 259.463 614.717 270.55C611.386 271.699 609.031 272.791 609.491 272.963C609.666 273.03 610.185 273.19 610.919 273.411C612.086 273.765 613.793 274.272 615.518 274.802C626.258 278.019 635.272 283.419 643.079 291.404C657.951 306.455 665.875 327.826 670.008 364.132C670.523 368.383 671.843 381.826 672.936 394.006C674.026 406.183 675.347 419.742 675.807 424.165C679.709 460.471 684.993 483.621 692.801 499.247C693.194 500.015 693.559 500.753 693.875 501.404C694.078 501.822 694.262 502.209 694.419 502.547C694.805 503.379 695.042 503.932 695.042 504.015C695.042 504.187 670.008 504.304 639.346 504.304H583.653L582.563 502.12C580.61 498.329 577.396 488.275 576.189 482.358C573.662 470.065 572.229 456.45 570.448 427.612C566.715 367.637 563.844 352.124 553.396 336.04C550.295 331.331 542.141 323.402 537.032 320.241C524.804 312.66 511.368 309.557 490.639 309.557H479.73L479.617 406.757L479.445 504.015L427.368 504.187L375.234 504.304V257.28V10.2569H452.977C502.468 10.2569 533.415 10.4864 538.122 10.8884ZM1299.29 156.517C1326.04 236.943 1348.14 302.548 1348.38 302.261C1348.61 302.032 1370.48 236.197 1397.01 156.001L1445.18 10.2569H1505.01H1564.89L1564.78 257.108L1564.6 504.015H1515.23H1465.85V402.908C1465.9 300.71 1466.08 288.761 1468.2 252.397C1470.27 217.01 1474.69 173.751 1479.57 141.524C1479.73 140.538 1479.86 139.612 1479.96 138.818C1480.06 137.991 1480.14 137.305 1480.18 136.84C1480.21 136.45 1480.22 136.216 1480.2 136.181C1479.98 135.957 1477.3 144.077 1435.37 271.374L1435.05 272.365L1434.96 272.637L1434.72 273.347L1431.97 281.696C1417.04 326.981 1403.29 368.78 1396.42 389.628L1392.01 403.025L1388.51 413.537H1347.57H1306.63L1261.16 277.1C1236.18 202.073 1215.57 140.662 1215.4 140.662C1215.3 140.662 1215.26 140.962 1215.29 141.409C1215.31 141.72 1215.36 142.101 1215.46 142.5C1216.89 150.716 1222.69 217.642 1224.93 252.11C1228.09 300.423 1228.43 315.762 1228.43 414.802V504.304H1179.05H1129.68V257.28V10.2569H1190.14H1250.54L1299.29 156.517ZM1707.28 113.202C1707.28 199.89 1707.4 216.033 1708.09 215.344C1708.49 214.884 1739.55 168.868 1777.04 113.088C1814.54 57.3059 1845.54 11.3481 1845.88 10.9462C1846.4 10.4294 1859.26 10.257 1907.78 10.3717L1968.98 10.5442L1963.41 18.2996C1955.72 28.9843 1877.58 137.445 1854.9 169.041L1836.35 194.778L1838.48 199.775C1840.2 203.682 1930.51 407.276 1950.26 451.738C1952.79 457.427 1955.03 462.308 1955.32 462.539C1955.55 462.828 1956.64 459.323 1957.79 454.782C1958.22 453.081 1959.36 448.537 1960.96 442.166C1963.63 431.541 1967.57 415.834 1971.62 399.75C1978.17 374.014 1990.98 323.172 2000.1 286.866C2009.23 250.501 2024.22 191.043 2033.41 154.737C2036.58 142.158 2040.08 128.266 2043.53 114.579L2051.03 84.7763L2052.68 78.2053L2058.33 55.7617L2059.93 49.4358L2069.81 10.2569H2151.11H2232.41L2235.97 24.159C2236.68 26.9864 2237.91 31.8123 2239.43 37.7754C2242.04 48.0492 2245.52 61.6978 2248.71 74.3108C2252.02 87.1607 2255.7 101.644 2258.54 112.762C2259.68 117.248 2260.68 121.187 2261.46 124.249L2262.21 127.162C2262.51 128.33 2262.85 129.672 2263.23 131.157L2264.44 135.911L2267.03 146.101C2269.11 154.296 2271.41 163.349 2273.4 171.109C2274.37 174.884 2275.41 178.928 2276.45 183.004L2278.33 190.384L2282.06 205.046L2284.31 213.908C2286.49 222.409 2291.37 241.712 2295.22 256.706C2298.04 267.694 2301.42 280.967 2303.88 290.643L2306.13 299.504C2308.31 308.006 2313.19 327.309 2317.04 342.303C2320.41 355.558 2323.05 365.886 2325.82 376.751C2329.28 390.276 2332.94 404.634 2338.51 426.521C2339.7 431.184 2341.09 436.677 2342.55 442.394L2342.58 442.48L2342.89 443.708L2343.04 444.314C2345.9 455.507 2348.91 467.309 2350.91 475.348C2354.13 487.931 2357.12 499.478 2357.52 500.971C2357.92 502.408 2358.15 503.788 2357.97 503.96C2357.75 504.132 2333.12 504.304 2303.26 504.304H2248.83L2238.95 464.207C2233.5 442.203 2226.95 415.721 2224.43 405.322L2219.72 386.535H2150.42H2081.06L2080.66 388.089L2079.21 393.99C2076.84 403.618 2071.85 423.904 2066.19 446.857L2052.07 504.015H1953.37H1854.73L1839.05 466.962C1830.44 446.568 1810.69 399.805 1795.13 362.983C1779.57 326.161 1766.54 295.425 1766.19 294.678C1765.5 293.414 1763.78 295.655 1736.39 333.742L1707.28 374.186V439.273V504.304L1655.21 504.187L1603.07 504.015L1602.9 257.108L1602.79 10.2569H1655.03H1707.28V113.202ZM2440.71 40.5892C2448.12 55.3532 2449.79 72.7598 2445.31 88.2128C2443.81 93.4402 2441.63 98.8976 2440.02 101.483L2439.05 103.091L2423.66 86.8345L2408.27 70.5767L2409.59 68.9102C2414.53 62.6488 2437.96 36.2806 2438.36 36.5101C2438.59 36.625 2439.68 38.5209 2440.71 40.5892ZM2416.05 87.6931L2418.77 90.537C2420.99 92.8596 2423.17 95.1282 2425.1 97.123C2427.44 99.559 2429.41 101.586 2430.61 102.804L2435.94 108.319L2433.53 111.421C2422.63 125.323 2404.83 134.86 2387.83 135.894L2381.92 136.238V104.298V72.3H2391.62H2401.33L2413.27 84.7659L2416.05 87.6931ZM871.881 94.7614C876.993 92.0047 886.522 88.7295 892.896 87.5806C896.169 86.9491 900.188 86.7767 907.191 86.8913C917.927 87.1217 923.441 88.2128 932.514 91.8321C967.765 105.849 992.913 150.83 1000.49 213.275C1002.39 229.131 1002.9 238.552 1002.9 256.993C1002.9 305.421 995.268 344.082 979.478 375.163C970.578 392.685 958.81 406.643 945.43 415.546C923.727 429.968 896.396 431.805 873.548 420.258C866.14 416.525 860.684 412.618 854.141 406.358C838.579 391.419 827.385 371.486 819.058 343.738C806.139 300.825 804.131 239.874 813.95 191.273C823.538 143.649 843.804 109.928 871.881 94.7614ZM479.73 159.849V224.535H504.077C530.428 224.535 534.22 224.248 543.175 221.318C567.577 213.333 581.356 191.331 581.356 160.482C581.356 146.981 579.348 136.641 574.755 126.932C567.405 111.479 555.693 101.713 538.868 97.1172L533.415 95.6233L506.601 95.3936L479.73 95.2213V159.849ZM2123.55 212.988C2135.61 164.503 2146.46 120.498 2147.72 115.213C2148.59 111.677 2149.42 108.644 2149.92 107.064C2150.18 106.257 2150.36 105.829 2150.42 105.907C2150.59 106.078 2161.61 150.083 2174.93 203.739L2199.16 301.228L2150.65 301.399C2123.95 301.457 2102.02 301.399 2101.9 301.284C2101.79 301.17 2111.55 261.416 2123.55 212.988Z" fill="#E7451C"/>
</svg>
